<svg xmlns="http://www.w3.org/2000/svg" viewBox="0 0 1200 630" role="img" aria-label="NWC Provider">
  <rect width="1200" height="630" fill="#202020"/>
  <rect x="52" y="52" width="1096" height="526" rx="18" fill="#232323" stroke="#a7d129" stroke-opacity=".28" stroke-width="3"/>
  <g fill="none" stroke="#a7d129" stroke-width="7" stroke-linecap="round" stroke-linejoin="round" opacity=".68">
    <path d="M184 404c104-122 226-183 366-183 140 0 263 61 368 183"/>
    <path d="M260 438c80-70 169-105 268-105 103 0 193 35 270 105"/>
    <path d="M756 170h174c40 0 72 32 72 72v174c0 40-32 72-72 72H756c-40 0-72-32-72-72V242c0-40 32-72 72-72z"/>
    <path d="M746 272h264"/>
    <path d="M826 394h104"/>
  </g>
  <g fill="#a7d129">
    <circle cx="268" cy="248" r="34" opacity=".9"/>
    <circle cx="444" cy="194" r="24" opacity=".75"/>
    <circle cx="598" cy="238" r="30" opacity=".85"/>
    <circle cx="848" cy="330" r="24" opacity=".95"/>
  </g>
  <g fill="#d3d3d3" font-family="monospace">
    <text x="92" y="126" font-size="42" letter-spacing="4">NOSTR WALLET CONNECT</text>
    <text x="92" y="548" font-size="38">Provider . Payments . Sessions</text>
  </g>
</svg>
