<svg xmlns="http://www.w3.org/2000/svg" viewBox="0 0 1200 630" role="img" aria-label="Nostrduino">
  <rect width="1200" height="630" fill="#202020"/>
  <rect x="58" y="58" width="1084" height="514" rx="18" fill="#232323" stroke="#a7d129" stroke-opacity=".28" stroke-width="3"/>
  <g transform="translate(690 152)" fill="none" stroke="#a7d129" stroke-width="11" stroke-linecap="round" stroke-linejoin="round" opacity=".75">
    <rect x="0" y="70" width="300" height="210" rx="28"/>
    <path d="M54 70V20M112 70V20M170 70V20M228 70V20M54 330v-50M112 330v-50M170 330v-50M228 330v-50"/>
    <circle cx="80" cy="148" r="20"/>
    <circle cx="220" cy="148" r="20"/>
    <path d="M82 220c42 34 94 34 136 0"/>
  </g>
  <g fill="#a7d129" opacity=".16">
    <circle cx="170" cy="158" r="74"/>
    <circle cx="292" cy="248" r="44"/>
    <circle cx="396" cy="146" r="30"/>
    <circle cx="482" cy="266" r="62"/>
  </g>
  <text x="92" y="126" fill="#d3d3d3" font-family="monospace" font-size="42" letter-spacing="4">NOSTR FOR MICROCONTROLLERS</text>
  <text x="92" y="548" fill="#d3d3d3" font-family="monospace" font-size="40">Arduino . NWC . embedded</text>
</svg>
